# xmcd CD database file
# Generated: Fre Aug 29 11:55:06 2003 by KSCD
# 
# Track frame offsets:
#       150
#       4837
#       17640
#       28204
#       46265
#       59509
#       84757
#       102533
#       107255
#       124701
#       133580
#       148071
#       164645
#       188417
#       192730
#       206043
#       206633
#
# Disc length: 3058 seconds
#
# Revision: 4
# Processed by: cddbd v1.4PL0 Copyright (c) Steve Scherf et al.
# Submitted via: Kscd 1.3.3
#
DISCID=f10bf011
DTITLE=Ohrenpeyn - Der erste Ohrenpeyniger
DYEAR=1900
DGENRE=
TTITLE0=Intro
TTITLE1=Gevatter
TTITLE2=Fingerbrecher
TTITLE3=Ohrenpeyn
TTITLE4=Gaitanischer Tanz
TTITLE5=Der Einsame
TTITLE6=Skudrinkanisch
TTITLE7=Der Spruch
TTITLE8=Schönheit der Weibsbilder
TTITLE9=In Der Nacht
TTITLE10=Einmarsch der Toten
TTITLE11=Schottische Freude
TTITLE12=Dreifacher
TTITLE13=Wiesenträumerei
TTITLE14=Heidschnuckentanz
TTITLE15=Spielmannstod
TTITLE16=Skudrinkanischer Remix
EXTD=
EXTT0=
EXTT1=
EXTT2=
EXTT3=
EXTT4=
EXTT5=
EXTT6=
EXTT7=
EXTT8=
EXTT9=
EXTT10=
EXTT11=
EXTT12=
EXTT13=
EXTT14=
EXTT15=
EXTT16=
PLAYORDER=
